HIERARCHY
ROOT root
{
	OFFSET	0	13.1	24.9
	CHANNELS 6  Xposition Yposition Zposition Xrotation Yrotation Zrotation
	JOINT spine_1
	{
		OFFSET	0	9.99999	0
		CHANNELS 3  Xrotation Yrotation Zrotation
		JOINT spine_2
		{
			OFFSET	0	112	-10
			CHANNELS 3  Xrotation Yrotation Zrotation
			JOINT spine_3
			{
				OFFSET	0	206.5	19.3
				CHANNELS 3  Xrotation Yrotation Zrotation
				JOINT spine_4
				{
					OFFSET	0	110.4	14.6
					CHANNELS 3  Xrotation Yrotation Zrotation
					JOINT neck_1
					{
						OFFSET	0	71.8	-50.3
						CHANNELS 3  Xrotation Yrotation Zrotation
						JOINT neck_2
						{
							OFFSET	0	86.2	-25.8
							CHANNELS 3  Xrotation Yrotation Zrotation
							JOINT head_ee
							{
								OFFSET	0	179.8	-8.7
								CHANNELS 3  Xrotation Yrotation Zrotation
								End Site
								{
									OFFSET	1	0	0
								}
							}
						}
					}
					JOINT left_clavicle
					{
						OFFSET	-43.2	22.4	-70.8
						CHANNELS 3  Xrotation Yrotation Zrotation
						JOINT left_shoulder
						{
							OFFSET	-93.9	-5.79999	48.7
							CHANNELS 3  Xrotation Yrotation Zrotation
							JOINT left_elbow
							{
								OFFSET	-291.4	-30.8	15.2
								CHANNELS 3  Xrotation Yrotation Zrotation
								JOINT left_lowarm_twist
								{
									OFFSET	-110.7	-3.89999	13.6
									CHANNELS 3  Xrotation Yrotation Zrotation
									JOINT left_hand
									{
										OFFSET	-110.7	-3.89999	13.6
										CHANNELS 3  Xrotation Yrotation Zrotation
										JOINT left_ee
										{
											OFFSET	-80.8	-5.10001	12.1
											CHANNELS 3  Xrotation Yrotation Zrotation
											End Site
											{
												OFFSET	1	0	0
											}
										}
									}
								}
							}
						}
					}
					JOINT right_clavicle
					{
						OFFSET	43.2	22.4	-70.8
						CHANNELS 3  Xrotation Yrotation Zrotation
						JOINT right_shoulder
						{
							OFFSET	93.9	-5.79999	48.7
							CHANNELS 3  Xrotation Yrotation Zrotation
							JOINT right_elbow
							{
								OFFSET	291.4	-30.8	15.2
								CHANNELS 3  Xrotation Yrotation Zrotation
								JOINT right_lowarm_twist
								{
									OFFSET	110.7	-3.89999	13.6
									CHANNELS 3  Xrotation Yrotation Zrotation
									JOINT right_hand
									{
										OFFSET	110.7	-3.89999	13.6
										CHANNELS 3  Xrotation Yrotation Zrotation
										JOINT right_ee
										{
											OFFSET	80.8	-5.10001	12.1
											CHANNELS 3  Xrotation Yrotation Zrotation
											End Site
											{
												OFFSET	1	0	0
											}
										}
									}
								}
							}
						}
					}
				}
			}
		}
	}
	JOINT left_hip
	{
		OFFSET	-82.8	-127.5	0.300001
		CHANNELS 3  Xrotation Yrotation Zrotation
		JOINT left_knee
		{
			OFFSET	-28.2	-396.7	2.2
			CHANNELS 3  Xrotation Yrotation Zrotation
			JOINT left_ankle
			{
				OFFSET	-11.7	-411.3	35.4
				CHANNELS 3  Xrotation Yrotation Zrotation
				JOINT left_toes
				{
					OFFSET	0	-60	-88.6
					CHANNELS 3  Xrotation Yrotation Zrotation
					JOINT left_foot_ee
					{
						OFFSET	-22.5	-16.5	-42.2
						CHANNELS 3  Xrotation Yrotation Zrotation
						End Site
						{
							OFFSET	1	0	0
						}
					}
				}
			}
		}
	}
	JOINT right_hip
	{
		OFFSET	82.8	-127.5	0.300001
		CHANNELS 3  Xrotation Yrotation Zrotation
		JOINT right_knee
		{
			OFFSET	28.2	-396.7	2.2
			CHANNELS 3  Xrotation Yrotation Zrotation
			JOINT right_ankle
			{
				OFFSET	11.7	-411.3	35.4
				CHANNELS 3  Xrotation Yrotation Zrotation
				JOINT right_toes
				{
					OFFSET	0	-60	-88.6
					CHANNELS 3  Xrotation Yrotation Zrotation
					JOINT right_foot_ee
					{
						OFFSET	22.5	-16.5	-42.2
						CHANNELS 3  Xrotation Yrotation Zrotation
						End Site
						{
							OFFSET	1	0	0
						}
					}
				}
			}
		}
	}
}
MOTION
Frames: 6
Frame Time: 0.02
2564.12846787 741.861 -1487.40734033 6.14785035822 65.4441347248 -13.8607567559 1.29417 0.630188 3.74204 1.30187 0.390969 3.77449 1.32902 -0.323648 3.78085 1.30918 0.277089 3.78454 -9.26934 17.2457 -2.62629 -9.56941 34.1873 1.72743 -0.0 0.0 -0.0 -2.28975 23.4277 -0.425983 -22.0498 -18.8851 63.0785 0.731573 -19.9205 0.128474 -34.3287 -2.36919 3.62431 0.280477 15.6878 8.1546 -0.0 0.0 -0.0 13.7638 25.469 -27.5145 -2.06684 24.9463 -69.0248 1.01174 26.6188 -0.239346 20.6892 -0.259225 2.61582 2.12445 9.13336 -10.5207 0.0 0.0 0.0 2.14298 35.9508 -4.56074 -34.6533 -0.162106 5.23551 38.2452 -11.6811 -4.91216 -40.0177 0.0 0.0 -0.0 0.0 -0.0 2.86997 17.4564 -0.069579 -2.69961 -0.101701 -0.401781 19.1698 3.11139 2.67018 -7.20471 0.0 0.0 0.0 0.0 0.0 
2557.06396616 740.185 -1477.16785481 6.17915183716 68.1385599252 -13.7502822969 1.55105 0.435886 3.72963 1.55876 0.197848 3.74977 1.57233 -0.493281 3.72248 1.55301 0.100377 3.75364 -10.4912 16.7084 -1.50059 -10.9358 32.5347 3.07271 -0.0 0.0 -0.0 -2.73709 23.024 -1.11742 -22.4899 -18.418 64.6282 0.610903 -16.8372 0.0904138 -33.223 -2.26094 3.53268 0.266491 17.3931 8.71141 -0.0 0.0 -0.0 13.4833 24.2023 -27.0008 -0.685379 25.6612 -69.149 1.29225 32.6235 -0.378181 19.3287 -0.271365 2.44247 2.62213 11.57 -12.8622 0.0 0.0 0.0 3.4187 35.469 -4.70819 -26.8434 0.151971 4.07907 39.4215 -7.81013 -4.92977 -40.0001 0.0 0.0 -0.0 0.0 -0.0 2.3489 18.4551 -0.202597 -2.5324 -0.0959536 -0.376764 20.8517 -0.00276335 2.8572 -7.48163 0.0 0.0 0.0 0.0 0.0 
2549.40953245 743.637 -1463.93083359 6.56594454403 71.2357663792 -13.644096311 1.47127 0.402992 3.57367 1.47835 0.174923 3.59204 1.49003 -0.491995 3.56253 1.47233 0.0764368 3.59548 -11.2469 16.521 -0.80273 -11.7695 31.7951 3.92484 -0.0 0.0 -0.0 -4.09733 21.3364 -3.39977 -21.1018 -18.4316 69.3368 0.559063 -15.4799 0.0759859 -31.7308 -2.11769 3.40576 0.239258 18.0371 8.78526 -0.0 0.0 -0.0 13.1496 22.3795 -26.4016 0.394698 25.8358 -69.0839 1.4982 36.579 -0.495202 18.7622 -0.275205 2.37021 2.61543 11.0796 -13.0381 0.0 0.0 0.0 4.55262 34.8223 -5.18204 -22.645 0.254853 3.44314 39.0953 -7.46286 -4.89444 -39.8478 0.0 0.0 -0.0 0.0 -0.0 1.75149 20.4741 -0.453763 -2.53622 -0.0960859 -0.377335 20.9629 -2.41551 2.8586 -6.916 0.0 0.0 0.0 0.0 0.0 
2540.82394209 746.938 -1448.54820552 5.20745511919 73.8672479133 -11.9681258935 1.6263 0.330507 3.58468 1.63345 0.101886 3.59842 1.64018 -0.555763 3.55676 1.62253 0.0125569 3.59984 -12.0143 15.4998 -1.02224 -12.5565 30.0615 3.61979 -0.0 0.0 -0.0 -4.9857 20.596 -4.87993 -20.6378 -17.7328 72.5786 0.548473 -15.2004 0.0731844 -29.7628 -1.93393 3.23279 0.470627 19.7309 10.8164 -0.0 0.0 -0.0 12.895 20.4929 -25.965 1.31444 25.9552 -69.0545 1.77132 41.2619 -0.666932 17.4269 -0.281429 2.19978 3.19736 13.5983 -15.9088 0.0 0.0 0.0 5.21264 34.241 -4.69354 -16.6486 0.320485 2.52582 34.0925 -6.08387 -4.40124 -40.2969 0.0 0.0 -0.0 0.0 -0.0 2.3552 22.1125 -0.466054 -1.74566 -0.0679309 -0.259275 22.7495 -6.39035 3.06576 -7.39391 0.0 0.0 0.0 0.0 0.0 
2489.54354362 748.418 -1440.53800557 -0.460096502315 68.691723471 -3.76196035675 1.16394 0.458612 3.15368 1.16944 0.257109 3.17644 1.18481 -0.35105 3.16744 1.17084 0.153332 3.18313 -7.12148 15.4089 -4.81918 -7.02808 32.0976 -1.62135 -0.0 0.0 -0.0 -5.82347 19.2453 -6.5025 -13.5388 -19.2751 75.1622 0.462446 -12.903 0.0522928 -22.2729 -1.2919 2.52 1.72978 21.1253 19.0364 -0.0 0.0 -0.0 10.9572 17.6704 -21.7064 0.634401 24.6164 -70.8443 1.82666 42.137 -0.703746 14.4125 -0.280869 1.81481 3.61858 20.3787 -15.4245 0.0 0.0 0.0 -1.82182 37.9346 -0.932311 0.0105763 -0.000435503 -0.0015646 16.2757 -7.70042 -2.3397 -40.1975 0.0 0.0 -0.0 0.0 -0.0 4.3937 23.7181 -1.90637 -6.4789 -0.212024 -0.971187 36.8199 -13.7476 4.62083 -10.7455 0.0 0.0 0.0 0.0 0.0 
2489.63751331 748.418 -1439.66896954 -0.46341445016 68.851641673 -3.75840088397 1.16394 0.458612 3.15368 1.16944 0.257109 3.17644 1.18481 -0.35105 3.16744 1.17084 0.153332 3.18313 -7.12148 15.4089 -4.81918 -7.02808 32.0976 -1.62135 -0.0 0.0 -0.0 -5.82347 19.2453 -6.5025 -13.5388 -19.2751 75.1622 0.462446 -12.903 0.0522928 -22.2729 -1.2919 2.52 1.72978 21.1253 19.0364 -0.0 0.0 -0.0 10.9572 17.6704 -21.7064 0.634401 24.6164 -70.8443 1.82666 42.137 -0.703746 14.4125 -0.280869 1.81481 3.61858 20.3787 -15.4245 0.0 0.0 0.0 -1.82182 37.9346 -0.932311 0.0105763 -0.000435503 -0.0015646 16.2757 -7.70042 -2.3397 -40.1975 0.0 0.0 -0.0 0.0 -0.0 4.3937 23.7181 -1.90637 -6.4789 -0.212024 -0.971187 36.8199 -13.7476 4.62083 -10.7455 0.0 0.0 0.0 0.0 0.0 
